Mailpile-Regular.ufo
<glyph name="percent" format="1">
  <advance width="1825"/>
  <unicode hex="0025"/>
  <outline>
    <contour>
      <point x="210" y="38" type="line"/>
      <point x="298" y="-54" type="line"/>
      <point x="1682" y="1530" type="line"/>
      <point x="1581" y="1610" type="line"/>
    </contour>
    <contour>
      <point x="647" y="1403"/>
      <point x="776" y="1272"/>
      <point x="776" y="1125" type="curve" smooth="yes"/>
      <point x="776" y="981"/>
      <point x="645" y="847"/>
      <point x="500" y="847" type="curve" smooth="yes"/>
      <point x="358" y="847"/>
      <point x="222" y="983"/>
      <point x="222" y="1125" type="curve" smooth="yes"/>
      <point x="222" y="1270"/>
      <point x="356" y="1403"/>
      <point x="500" y="1403" type="curve" smooth="yes"/>
    </contour>
    <contour>
      <point x="288" y="1523"/>
      <point x="104" y="1335"/>
      <point x="104" y="1126" type="curve" smooth="yes"/>
      <point x="104" y="918"/>
      <point x="283" y="729"/>
      <point x="500" y="729" type="curve"/>
      <point x="714" y="728"/>
      <point x="900" y="911"/>
      <point x="900" y="1125" type="curve" smooth="yes"/>
      <point x="900" y="1336"/>
      <point x="712" y="1523"/>
      <point x="502" y="1523" type="curve" smooth="yes"/>
    </contour>
    <contour>
      <point x="1465" y="645"/>
      <point x="1596" y="511"/>
      <point x="1596" y="367" type="curve" smooth="yes"/>
      <point x="1596" y="220"/>
      <point x="1467" y="91"/>
      <point x="1320" y="91" type="curve" smooth="yes"/>
      <point x="1173" y="91"/>
      <point x="1043" y="222"/>
      <point x="1043" y="368" type="curve" smooth="yes"/>
      <point x="1043" y="508"/>
      <point x="1173" y="645"/>
      <point x="1320" y="645" type="curve" smooth="yes"/>
    </contour>
    <contour>
      <point x="1109" y="764"/>
      <point x="923" y="581"/>
      <point x="923" y="367" type="curve" smooth="yes"/>
      <point x="923" y="157"/>
      <point x="1109" y="-29"/>
      <point x="1319" y="-29" type="curve" smooth="yes"/>
      <point x="1529" y="-29"/>
      <point x="1717" y="153"/>
      <point x="1717" y="367" type="curve" smooth="yes"/>
      <point x="1717" y="581"/>
      <point x="1533" y="765"/>
      <point x="1320" y="765" type="curve"/>
    </contour>
  </outline>
</glyph>
<glyph name="period" format="1">
  <advance width="537"/>
  <unicode hex="002E"/>
  <outline>
    <contour>
      <point x="207" y="209"/>
      <point x="157" y="156"/>
      <point x="157" y="93.9999" type="curve" smooth="yes"/>
      <point x="157" y="33"/>
      <point x="207" y="-17"/>
      <point x="268" y="-17" type="curve" smooth="yes"/>
      <point x="330" y="-17"/>
      <point x="381" y="33"/>
      <point x="381" y="95.9999" type="curve"/>
      <point x="381" y="157"/>
      <point x="329" y="209"/>
      <point x="268" y="209" type="curve" smooth="yes"/>
    </contour>
  </outline>
</glyph>
<glyph name="zero" format="1">
  <advance width="1369"/>
  <unicode hex="0030"/>
  <outline>
    <contour>
      <point x="312" y="1530"/>
      <point x="144" y="1191"/>
      <point x="144" y="767" type="curve" smooth="yes"/>
      <point x="144" y="345"/>
      <point x="294" y="-19"/>
      <point x="686" y="-20" type="curve" smooth="yes"/>
      <point x="1078" y="-21"/>
      <point x="1228" y="315"/>
      <point x="1228" y="767" type="curve" smooth="yes"/>
      <point x="1228" y="1160"/>
      <point x="1055" y="1530"/>
      <point x="686" y="1530" type="curve" smooth="yes"/>
    </contour>
    <contour>
      <point x="974" y="1395"/>
      <point x="1088" y="1108"/>
      <point x="1088" y="767" type="curve" smooth="yes"/>
      <point x="1088" y="403"/>
      <point x="982" y="105"/>
      <point x="686" y="106" type="curve" smooth="yes"/>
      <point x="389" y="107"/>
      <point x="284" y="403"/>
      <point x="284" y="767" type="curve" smooth="yes"/>
      <point x="284" y="1109"/>
      <point x="415" y="1395"/>
      <point x="686" y="1395" type="curve" smooth="yes"/>
    </contour>
  </outline>
</glyph>
<glyph name="three" format="1">
  <advance width="1227"/>
  <unicode hex="0033"/>
  <outline>
    <contour>
      <point x="308" y="1495" type="line" smooth="yes"/>
      <point x="214" y="1495"/>
      <point x="178" y="1455"/>
      <point x="178" y="1361" type="curve" smooth="yes"/>
      <point x="178" y="1234" type="line"/>
      <point x="314" y="1234" type="line"/>
      <point x="314" y="1364" type="line"/>
      <point x="904" y="1364" type="line"/>
      <point x="427" y="824" type="line"/>
      <point x="457" y="735" type="line"/>
      <point x="549" y="735" type="line" smooth="yes"/>
      <point x="778" y="735"/>
      <point x="961" y="628"/>
      <point x="963" y="416" type="curve" smooth="yes"/>
      <point x="965" y="221"/>
      <point x="821" y="105"/>
      <point x="603" y="105" type="curve" smooth="yes"/>
      <point x="446" y="105"/>
      <point x="334" y="185"/>
      <point x="237" y="301" type="curve"/>
      <point x="137" y="203" type="line"/>
      <point x="213" y="105"/>
      <point x="362" y="-17"/>
      <point x="596" y="-20" type="curve" smooth="yes"/>
      <point x="892" y="-23"/>
      <point x="1085" y="158"/>
      <point x="1085" y="420" type="curve" smooth="yes"/>
      <point x="1085" y="713"/>
      <point x="836" y="873"/>
      <point x="557" y="857" type="curve"/>
      <point x="574" y="805" type="line"/>
      <point x="1089" y="1385" type="line"/>
      <point x="1089" y="1495" type="line"/>
    </contour>
  </outline>
</glyph>
<glyph name="colon" format="1">
  <advance width="537"/>
  <unicode hex="003A"/>
  <outline>
    <contour>
      <point x="207" y="1110"/>
      <point x="157" y="1057"/>
      <point x="157" y="995" type="curve" smooth="yes"/>
      <point x="157" y="934"/>
      <point x="207" y="884"/>
      <point x="268" y="884" type="curve" smooth="yes"/>
      <point x="330" y="884"/>
      <point x="383" y="934"/>
      <point x="383" y="995" type="curve"/>
      <point x="381" y="1060"/>
      <point x="331" y="1110"/>
      <point x="268" y="1110" type="curve" smooth="yes"/>
    </contour>
    <contour>
      <point x="209" y="207"/>
      <point x="159" y="154"/>
      <point x="159" y="92" type="curve" smooth="yes"/>
      <point x="159" y="31"/>
      <point x="209" y="-19"/>
      <point x="270" y="-19" type="curve" smooth="yes"/>
      <point x="332" y="-19"/>
      <point x="385" y="31"/>
      <point x="385" y="92" type="curve"/>
      <point x="385" y="154"/>
      <point x="331" y="207"/>
      <point x="270" y="207" type="curve" smooth="yes"/>
    </contour>
  </outline>
</glyph>
<glyph name="semicolon" format="1">
  <advance width="537"/>
  <unicode hex="003B"/>
  <outline>
    <contour>
      <point x="203" y="210"/>
      <point x="162" y="160"/>
      <point x="162" y="101" type="curve" smooth="yes"/>
      <point x="162" y="42"/>
      <point x="190" y="-13"/>
      <point x="190" y="-49" type="curve" smooth="yes"/>
      <point x="190" y="-85"/>
      <point x="182" y="-96"/>
      <point x="174" y="-114" type="curve" smooth="yes"/>
      <point x="155" y="-159"/>
      <point x="127" y="-188"/>
      <point x="100" y="-223" type="curve"/>
      <point x="149" y="-281" type="line"/>
      <point x="189" y="-247"/>
      <point x="229" y="-210"/>
      <point x="263" y="-170" type="curve" smooth="yes"/>
      <point x="323" y="-98"/>
      <point x="371" y="20"/>
      <point x="371" y="95" type="curve" smooth="yes"/>
      <point x="371" y="170"/>
      <point x="331" y="210"/>
      <point x="272" y="210" type="curve" smooth="yes"/>
    </contour>
    <contour>
      <point x="207" y="1110"/>
      <point x="157" y="1057"/>
      <point x="157" y="995" type="curve" smooth="yes"/>
      <point x="157" y="934"/>
      <point x="207" y="884"/>
      <point x="268" y="884" type="curve" smooth="yes"/>
      <point x="330" y="884"/>
      <point x="383" y="934"/>
      <point x="383" y="995" type="curve"/>
      <point x="381" y="1060"/>
      <point x="331" y="1110"/>
      <point x="268" y="1110" type="curve" smooth="yes"/>
    </contour>
  </outline>
</glyph>
<glyph name="question" format="1">
  <advance width="936"/>
  <unicode hex="003F"/>
  <outline>
    <contour>
      <point x="326" y="1522"/>
      <point x="220" y="1486"/>
      <point x="145" y="1413" type="curve" smooth="yes"/>
      <point x="70" y="1340"/>
      <point x="38" y="1240"/>
      <point x="38" y="1129" type="curve"/>
      <point x="179" y="1129" type="line"/>
      <point x="179" y="1287"/>
      <point x="276" y="1400"/>
      <point x="434" y="1400" type="curve"/>
      <point x="615" y="1401"/>
      <point x="689" y="1260"/>
      <point x="689" y="1134" type="curve" smooth="yes"/>
      <point x="689" y="1023"/>
      <point x="642" y="929"/>
      <point x="565" y="842" type="curve" smooth="yes"/>
      <point x="530" y="802"/>
      <point x="499" y="764"/>
      <point x="472" y="729" type="curve" smooth="yes"/>
      <point x="374" y="602"/>
      <point x="342" y="471"/>
      <point x="342" y="335" type="curve"/>
      <point x="472" y="335" type="line"/>
      <point x="472" y="395"/>
      <point x="482" y="456"/>
      <point x="503" y="518" type="curve" smooth="yes"/>
      <point x="545" y="642"/>
      <point x="622" y="710"/>
      <point x="708" y="808" type="curve" smooth="yes"/>
      <point x="793" y="903"/>
      <point x="840" y="1009"/>
      <point x="840" y="1132" type="curve" smooth="yes"/>
      <point x="840" y="1374"/>
      <point x="684" y="1522"/>
      <point x="439" y="1522" type="curve" smooth="yes"/>
    </contour>
    <contour>
      <point x="351" y="200"/>
      <point x="302" y="150"/>
      <point x="302" y="89" type="curve" smooth="yes"/>
      <point x="302" y="31"/>
      <point x="353" y="-18"/>
      <point x="411" y="-18" type="curve" smooth="yes"/>
      <point x="472" y="-18"/>
      <point x="520" y="29"/>
      <point x="520" y="89" type="curve" smooth="yes"/>
      <point x="520" y="150"/>
      <point x="472" y="200"/>
      <point x="411" y="200" type="curve" smooth="yes"/>
    </contour>
  </outline>
</glyph>
<glyph name="at" format="1">
  <advance width="2137"/>
  <unicode hex="0040"/>
  <outline>
    <contour>
      <point x="489" y="1577"/>
      <point x="76" y="1126"/>
      <point x="76" y="493" type="curve" smooth="yes"/>
      <point x="76" y="-51"/>
      <point x="457" y="-474"/>
      <point x="1041" y="-474" type="curve" smooth="yes"/>
      <point x="1296" y="-474"/>
      <point x="1442" y="-427"/>
      <point x="1634" y="-284" type="curve"/>
      <point x="1551" y="-173" type="line"/>
      <point x="1382" y="-304"/>
      <point x="1272" y="-340"/>
      <point x="1049" y="-340" type="curve"/>
      <point x="582" y="-340"/>
      <point x="217" y="0"/>
      <point x="217" y="489" type="curve" smooth="yes"/>
      <point x="217" y="1034"/>
      <point x="589" y="1448"/>
      <point x="1131" y="1448" type="curve" smooth="yes"/>
      <point x="1645" y="1448"/>
      <point x="1967" y="1081"/>
      <point x="1967" y="606" type="curve" smooth="yes"/>
      <point x="1967" y="465"/>
      <point x="1934" y="349"/>
      <point x="1868" y="259" type="curve" smooth="yes"/>
      <point x="1802" y="169"/>
      <point x="1721" y="124"/>
      <point x="1625" y="124" type="curve" smooth="yes"/>
      <point x="1580" y="124"/>
      <point x="1562" y="129"/>
      <point x="1542" y="142" type="curve" smooth="yes"/>
      <point x="1524" y="154"/>
      <point x="1515" y="177"/>
      <point x="1515" y="210" type="curve" smooth="yes"/>
      <point x="1515" y="746" type="line" smooth="yes"/>
      <point x="1515" y="885"/>
      <point x="1483" y="981"/>
      <point x="1420" y="1034" type="curve" smooth="yes"/>
      <point x="1357" y="1087"/>
      <point x="1256" y="1114"/>
      <point x="1117" y="1114" type="curve" smooth="yes"/>
      <point x="950" y="1114"/>
      <point x="838" y="1092"/>
      <point x="781" y="1049" type="curve" smooth="yes"/>
      <point x="724" y="1006"/>
      <point x="695" y="963"/>
      <point x="695" y="920" type="curve" smooth="yes"/>
      <point x="695" y="827" type="line"/>
      <point x="833" y="827" type="line"/>
      <point x="833" y="878" type="line" smooth="yes"/>
      <point x="833" y="918"/>
      <point x="849" y="948"/>
      <point x="881" y="968" type="curve" smooth="yes"/>
      <point x="913" y="988"/>
      <point x="991" y="998"/>
      <point x="1116" y="998" type="curve" smooth="yes"/>
      <point x="1259" y="998"/>
      <point x="1339" y="964"/>
      <point x="1356" y="896" type="curve" smooth="yes"/>
      <point x="1373" y="828"/>
      <point x="1381" y="758"/>
      <point x="1381" y="685" type="curve"/>
      <point x="1238" y="685" type="line" smooth="yes"/>
      <point x="900" y="685"/>
      <point x="613" y="624"/>
      <point x="613" y="328" type="curve" smooth="yes"/>
      <point x="613" y="66"/>
      <point x="741" y="-36"/>
      <point x="984" y="-36" type="curve" smooth="yes"/>
      <point x="1129" y="-36"/>
      <point x="1296" y="-23"/>
      <point x="1402" y="191" type="curve"/>
      <point x="1399" y="80"/>
      <point x="1432" y="-9"/>
      <point x="1562" y="-3" type="curve" smooth="yes"/>
      <point x="1695" y="4"/>
      <point x="1870" y="23"/>
      <point x="1988" y="200" type="curve" smooth="yes"/>
      <point x="2067" y="318"/>
      <point x="2107" y="454"/>
      <point x="2107" y="607" type="curve" smooth="yes"/>
      <point x="2107" y="1164"/>
      <point x="1751" y="1577"/>
      <point x="1139" y="1577" type="curve" smooth="yes"/>
    </contour>
    <contour>
      <point x="1382" y="433"/>
      <point x="1361" y="321"/>
      <point x="1314" y="243" type="curve" smooth="yes"/>
      <point x="1250" y="139"/>
      <point x="1148" y="94"/>
      <point x="1032" y="93" type="curve" smooth="yes"/>
      <point x="805" y="93"/>
      <point x="737" y="144"/>
      <point x="741" y="333" type="curve"/>
      <point x="729" y="586"/>
      <point x="1118" y="567"/>
      <point x="1240" y="567" type="curve" smooth="yes"/>
      <point x="1381" y="567" type="line"/>
    </contour>
  </outline>
</glyph>
<glyph name="A" format="1">
  <advance width="1307"/>
  <unicode hex="0041"/>
  <outline>
    <contour>
      <point x="557" y="1495" type="line"/>
      <point x="118" y="130" type="line"/>
      <point x="-9" y="130" type="line"/>
      <point x="-9" y="0" type="line"/>
      <point x="155" y="0" type="line" smooth="yes"/>
      <point x="174" y="0"/>
      <point x="190" y="4"/>
      <point x="204" y="13" type="curve" smooth="yes"/>
      <point x="218" y="22"/>
      <point x="228" y="35"/>
      <point x="234" y="53" type="curve" smooth="yes"/>
      <point x="375" y="476" type="line"/>
      <point x="936" y="476" type="line"/>
      <point x="1082" y="53" type="line" smooth="yes"/>
      <point x="1088" y="36"/>
      <point x="1098" y="23"/>
      <point x="1112" y="14" type="curve" smooth="yes"/>
      <point x="1126" y="5"/>
      <point x="1142" y="0"/>
      <point x="1161" y="0" type="curve" smooth="yes"/>
      <point x="1316" y="0" type="line"/>
      <point x="1316" y="130" type="line"/>
      <point x="1199" y="130" type="line"/>
      <point x="758" y="1495" type="line"/>
    </contour>
    <contour>
      <point x="905" y="606" type="line"/>
      <point x="413" y="606" type="line"/>
      <point x="650" y="1368" type="line"/>
      <point x="661" y="1368" type="line"/>
    </contour>
    <contour>
      <point x="1256" y="10" type="move" name="ogonek"/>
    </contour>
    <contour>
      <point x="654" y="1495" type="move" name="top"/>
    </contour>
  </outline>
</glyph>
<glyph name="F" format="1">
  <advance width="1156"/>
  <unicode hex="0046"/>
  <outline>
    <contour>
      <point x="119" y="1494" type="line"/>
      <point x="119" y="1365" type="line"/>
      <point x="255" y="1365" type="line"/>
      <point x="255" y="-1" type="line"/>
      <point x="401" y="-1" type="line"/>
      <point x="400.491" y="694" type="line"/>
      <point x="947" y="694" type="line"/>
      <point x="947" y="824" type="line"/>
      <point x="400.396" y="824" type="line"/>
      <point x="400" y="1365" type="line"/>
      <point x="915" y="1365" type="line"/>
      <point x="915" y="1235" type="line"/>
      <point x="1053" y="1235" type="line"/>
      <point x="1053" y="1432" type="line" smooth="yes"/>
      <point x="1053" y="1453"/>
      <point x="1048" y="1469"/>
      <point x="1038" y="1479" type="curve" smooth="yes"/>
      <point x="1028" y="1489"/>
      <point x="1012" y="1494"/>
      <point x="991" y="1494" type="curve" smooth="yes"/>
    </contour>
  </outline>
</glyph>
<glyph name="I" format="1">
  <advance width="698"/>
  <unicode hex="0049"/>
  <outline>
    <contour>
      <point x="140" y="1495" type="line"/>
      <point x="140" y="1365" type="line"/>
      <point x="276" y="1365" type="line"/>
      <point x="276" y="130" type="line"/>
      <point x="140" y="130" type="line"/>
      <point x="140" y="0" type="line"/>
      <point x="558" y="0" type="line"/>
      <point x="558" y="130" type="line"/>
      <point x="422" y="130" type="line"/>
      <point x="422" y="1365" type="line"/>
      <point x="558" y="1365" type="line"/>
      <point x="558" y="1495" type="line"/>
    </contour>
    <contour>
      <point x="628" y="10" type="move" name="ogonek"/>
    </contour>
    <contour>
      <point x="349" y="1495" type="move" name="top"/>
    </contour>
  </outline>
</glyph>
<glyph name="K" format="1">
  <advance width="1343"/>
  <unicode hex="004B"/>
  <outline>
    <contour>
      <point x="1097" y="1495" type="line"/>
      <point x="612" y="834" type="line"/>
      <point x="418" y="834" type="line"/>
      <point x="418" y="1426" type="line" smooth="yes"/>
      <point x="418" y="1469"/>
      <point x="393" y="1494"/>
      <point x="350" y="1494" type="curve" smooth="yes"/>
      <point x="137" y="1494" type="line"/>
      <point x="137" y="1364" type="line"/>
      <point x="272" y="1364" type="line"/>
      <point x="272" y="-1" type="line"/>
      <point x="419" y="-0.999999" type="line"/>
      <point x="419" y="704" type="line"/>
      <point x="605" y="704" type="line"/>
      <point x="1019" y="49" type="line" smooth="yes"/>
      <point x="1037" y="21"/>
      <point x="1073" y="-1"/>
      <point x="1105" y="-0.999999" type="curve" smooth="yes"/>
      <point x="1265" y="-1" type="line"/>
      <point x="1265" y="130" type="line"/>
      <point x="1130" y="130" type="line"/>
      <point x="731" y="764" type="line"/>
      <point x="1263" y="1495" type="line"/>
    </contour>
  </outline>
</glyph>
<glyph name="Z" format="1">
  <advance width="1097"/>
  <unicode hex="005A"/>
  <outline>
    <contour>
      <point x="154" y="1495" type="line" smooth="yes"/>
      <point x="111" y="1495"/>
      <point x="90" y="1476"/>
      <point x="90" y="1433" type="curve" smooth="yes"/>
      <point x="90" y="1236" type="line"/>
      <point x="226" y="1236" type="line"/>
      <point x="226" y="1366" type="line"/>
      <point x="859" y="1366" type="line"/>
      <point x="79" y="110" type="line"/>
      <point x="79" y="0.999999" type="line"/>
      <point x="982.999" y="0.999999" type="line" smooth="yes"/>
      <point x="1026" y="1"/>
      <point x="1045" y="22"/>
      <point x="1045" y="65" type="curve" smooth="yes"/>
      <point x="1045" y="262" type="line"/>
      <point x="911" y="260" type="line"/>
      <point x="911" y="130" type="line"/>
      <point x="255" y="130" type="line"/>
      <point x="1024" y="1379" type="line"/>
      <point x="1024" y="1495" type="line"/>
    </contour>
    <contour>
      <point x="549" y="1495" type="move" name="top"/>
    </contour>
  </outline>
</glyph>
<glyph name="underscore" format="1">
  <advance width="1174"/>
  <unicode hex="005F"/>
  <outline>
    <contour>
      <point x="135" y="130" type="line"/>
      <point x="135" y="0" type="line"/>
      <point x="1036" y="0" type="line"/>
      <point x="1036" y="130" type="line"/>
    </contour>
  </outline>
</glyph>
<glyph name="f" format="1">
  <advance width="762"/>
  <unicode hex="0066"/>
  <outline>
    <contour>
      <point x="414" y="959" type="line"/>
      <point x="671" y="959" type="line"/>
      <point x="671" y="1084" type="line"/>
      <point x="414" y="1084" type="line"/>
      <point x="414" y="1286"/>
      <point x="447" y="1370"/>
      <point x="602" y="1370" type="curve" smooth="yes"/>
      <point x="684" y="1370" type="line"/>
      <point x="684" y="1494" type="line"/>
      <point x="609" y="1494" type="line" smooth="yes"/>
      <point x="350" y="1494"/>
      <point x="278" y="1353"/>
      <point x="278" y="1084" type="curve"/>
      <point x="77" y="1084" type="line"/>
      <point x="77" y="959" type="line"/>
      <point x="279" y="959" type="line"/>
      <point x="279" y="0" type="line"/>
      <point x="413" y="0" type="line"/>
    </contour>
  </outline>
</glyph>
<glyph name="m" format="1">
  <advance width="1942"/>
  <unicode hex="006D"/>
  <outline>
    <contour>
      <point x="55" y="960" type="line"/>
      <point x="187" y="960" type="line"/>
      <point x="187" y="0" type="line"/>
      <point x="323" y="0" type="line"/>
      <point x="323" y="806" type="line"/>
      <point x="390" y="903"/>
      <point x="483" y="979"/>
      <point x="605" y="979" type="curve" smooth="yes"/>
      <point x="725" y="979"/>
      <point x="861" y="905"/>
      <point x="861" y="694" type="curve" smooth="yes"/>
      <point x="861" y="0" type="line"/>
      <point x="997" y="0" type="line"/>
      <point x="997" y="711" type="line" smooth="yes"/>
      <point x="998" y="856"/>
      <point x="1113" y="979"/>
      <point x="1274" y="979" type="curve" smooth="yes"/>
      <point x="1394" y="979"/>
      <point x="1530" y="905"/>
      <point x="1530" y="694" type="curve" smooth="yes"/>
      <point x="1530" y="210" type="line" smooth="yes"/>
      <point x="1530" y="126"/>
      <point x="1542" y="70"/>
      <point x="1567" y="42" type="curve" smooth="yes"/>
      <point x="1592" y="14"/>
      <point x="1634" y="0"/>
      <point x="1694" y="0" type="curve" smooth="yes"/>
      <point x="1844" y="0" type="line"/>
      <point x="1844" y="124" type="line"/>
      <point x="1754" y="124" type="line" smooth="yes"/>
      <point x="1725" y="124"/>
      <point x="1703" y="129"/>
      <point x="1688" y="139" type="curve" smooth="yes"/>
      <point x="1673" y="149"/>
      <point x="1666" y="173"/>
      <point x="1666" y="211" type="curve" smooth="yes"/>
      <point x="1666" y="717" type="line" smooth="yes"/>
      <point x="1666" y="985"/>
      <point x="1476" y="1104"/>
      <point x="1286" y="1104" type="curve" smooth="yes"/>
      <point x="1117" y="1104"/>
      <point x="1004" y="1021"/>
      <point x="929" y="881" type="curve"/>
      <point x="970" y="877" type="line"/>
      <point x="910" y="1034"/>
      <point x="763" y="1104"/>
      <point x="617" y="1104" type="curve" smooth="yes"/>
      <point x="465" y="1104"/>
      <point x="362" y="1031"/>
      <point x="279" y="914" type="curve"/>
      <point x="305" y="887" type="line"/>
      <point x="305" y="1023" type="line" smooth="yes"/>
      <point x="305" y="1066"/>
      <point x="278" y="1084"/>
      <point x="235" y="1084" type="curve" smooth="yes"/>
      <point x="55" y="1084" type="line"/>
    </contour>
  </outline>
</glyph>
<glyph name="guillemotleft" format="1">
  <advance width="913"/>
  <unicode hex="00AB"/>
  <outline>
    <contour>
      <point x="295" y="955" type="line"/>
      <point x="95.9999" y="705" type="line"/>
      <point x="95.9999" y="610" type="line"/>
      <point x="295" y="370" type="line"/>
      <point x="458" y="370" type="line"/>
      <point x="229" y="657" type="line"/>
      <point x="458" y="955" type="line"/>
    </contour>
    <contour>
      <point x="660" y="954" type="line"/>
      <point x="461" y="705" type="line"/>
      <point x="461" y="610" type="line"/>
      <point x="660" y="371" type="line"/>
      <point x="817" y="371" type="line"/>
      <point x="591" y="657" type="line"/>
      <point x="817" y="954" type="line"/>
    </contour>
  </outline>
</glyph>
<glyph name="acute" format="1">
  <advance width="643"/>
  <unicode hex="00B4"/>
  <outline>
    <contour>
      <point x="488" y="1644" type="line"/>
      <point x="121" y="1358" type="line"/>
      <point x="184" y="1274" type="line"/>
      <point x="584" y="1530" type="line"/>
    </contour>
    <contour>
      <point x="343" y="1084" type="move" name="_top"/>
    </contour>
  </outline>
</glyph>
<glyph name="cedilla" format="1">
  <advance width="616"/>
  <unicode hex="00B8"/>
  <outline>
    <contour>
      <point x="151" y="0" type="line"/>
      <point x="112" y="-197" type="line"/>
      <point x="262" y="-201" type="line" smooth="yes"/>
      <point x="324" y="-203"/>
      <point x="371" y="-241"/>
      <point x="371" y="-296" type="curve" smooth="yes"/>
      <point x="371" y="-356"/>
      <point x="327" y="-396"/>
      <point x="267" y="-396" type="curve" smooth="yes"/>
      <point x="211" y="-396"/>
      <point x="175" y="-357"/>
      <point x="175" y="-298" type="curve"/>
      <point x="69" y="-298" type="line"/>
      <point x="69" y="-421"/>
      <point x="141" y="-494"/>
      <point x="264" y="-494" type="curve" smooth="yes"/>
      <point x="384" y="-494"/>
      <point x="473" y="-422"/>
      <point x="473" y="-303" type="curve" smooth="yes"/>
      <point x="473" y="-171"/>
      <point x="392" y="-117"/>
      <point x="252" y="-107" type="curve"/>
      <point x="276" y="0" type="line"/>
    </contour>
    <contour>
      <point x="271" y="0" type="move" name="_bottom"/>
    </contour>
  </outline>
</glyph>
<glyph name="onequarter" format="1">
  <advance width="1690"/>
  <unicode hex="00BC"/>
  <outline>
    <contour>
      <point x="961" y="1628" type="line"/>
      <point x="469" y="-135" type="line"/>
      <point x="596" y="-135" type="line"/>
      <point x="1087" y="1628" type="line"/>
    </contour>
    <contour>
      <point x="309" y="1524" type="line"/>
      <point x="88" y="1458" type="line"/>
      <point x="97.9999" y="1364" type="line"/>
      <point x="281" y="1403" type="line"/>
      <point x="281" y="731" type="line"/>
      <point x="414" y="731" type="line"/>
      <point x="414" y="1524" type="line"/>
    </contour>
    <contour>
      <point x="1290" y="793" type="line"/>
      <point x="954" y="250" type="line"/>
      <point x="954" y="172" type="line"/>
      <point x="1356" y="172" type="line"/>
      <point x="1356" y="0" type="line"/>
      <point x="1489" y="0" type="line"/>
      <point x="1489" y="172" type="line"/>
      <point x="1581" y="172" type="line"/>
      <point x="1581" y="258" type="line"/>
      <point x="1489" y="258" type="line"/>
      <point x="1489" y="793" type="line"/>
    </contour>
    <contour>
      <point x="1356" y="258" type="line"/>
      <point x="1096" y="258" type="line"/>
      <point x="1356" y="668" type="line"/>
    </contour>
  </outline>
</glyph>
<glyph name="Thorn" format="1">
  <advance width="1252"/>
  <unicode hex="00DE"/>
  <outline>
    <contour>
      <point x="110" y="1497" type="line"/>
      <point x="110" y="1367" type="line"/>
      <point x="246" y="1367" type="line"/>
      <point x="246" y="2" type="line"/>
      <point x="392" y="2" type="line"/>
      <point x="392.231" y="347" type="line"/>
      <point x="642" y="347" type="line" smooth="yes"/>
      <point x="922" y="347"/>
      <point x="1156" y="487"/>
      <point x="1156" y="781" type="curve" smooth="yes"/>
      <point x="1156" y="1063"/>
      <point x="940" y="1213"/>
      <point x="642" y="1213" type="curve" smooth="yes"/>
      <point x="392.81" y="1213" type="line"/>
      <point x="393" y="1497" type="line"/>
    </contour>
    <contour>
      <point x="852" y="1083"/>
      <point x="1006" y="997"/>
      <point x="1006" y="782" type="curve" smooth="yes"/>
      <point x="1006" y="573"/>
      <point x="862" y="477"/>
      <point x="642" y="477" type="curve" smooth="yes"/>
      <point x="392.318" y="477" type="line"/>
      <point x="392.723" y="1083" type="line"/>
      <point x="642" y="1083" type="line" smooth="yes"/>
    </contour>
  </outline>
</glyph>
<glyph name="germandbls" format="1">
  <advance width="1368"/>
  <unicode hex="00DF"/>
  <outline>
    <contour>
      <point x="400" y="1523"/>
      <point x="246" y="1317"/>
      <point x="246" y="986.999" type="curve" smooth="yes"/>
      <point x="246" y="117" type="line"/>
      <point x="117" y="115" type="line"/>
      <point x="117" y="-4" type="line"/>
      <point x="340" y="-4" type="line" smooth="yes"/>
      <point x="385" y="-4"/>
      <point x="411" y="17"/>
      <point x="411" y="60" type="curve" smooth="yes"/>
      <point x="411" y="688" type="line"/>
      <point x="782" y="691" type="line" smooth="yes"/>
      <point x="999" y="691"/>
      <point x="1128" y="592"/>
      <point x="1128" y="389" type="curve" smooth="yes"/>
      <point x="1128" y="216"/>
      <point x="1053" y="100"/>
      <point x="892" y="100" type="curve" smooth="yes"/>
      <point x="784" y="100"/>
      <point x="721" y="136"/>
      <point x="654" y="188" type="curve"/>
      <point x="573" y="67" type="line"/>
      <point x="625" y="25"/>
      <point x="749" y="-29"/>
      <point x="882" y="-29" type="curve" smooth="yes"/>
      <point x="1148" y="-29"/>
      <point x="1292" y="114"/>
      <point x="1292" y="373" type="curve" smooth="yes"/>
      <point x="1292" y="601"/>
      <point x="1176" y="770"/>
      <point x="967" y="781" type="curve"/>
      <point x="1131" y="824"/>
      <point x="1170" y="945"/>
      <point x="1170" y="1119" type="curve" smooth="yes"/>
      <point x="1170" y="1383"/>
      <point x="985" y="1523"/>
      <point x="709" y="1523" type="curve" smooth="yes"/>
    </contour>
    <contour>
      <point x="903" y="1398"/>
      <point x="1014" y="1295"/>
      <point x="1014" y="1107" type="curve" smooth="yes"/>
      <point x="1014" y="921"/>
      <point x="908" y="836"/>
      <point x="724" y="836" type="curve" smooth="yes"/>
      <point x="413" y="836" type="line"/>
      <point x="411" y="989.999" type="line"/>
      <point x="411" y="1234"/>
      <point x="494" y="1398"/>
      <point x="715" y="1398" type="curve" smooth="yes"/>
    </contour>
  </outline>
</glyph>
<glyph name="ae" format="1">
  <advance width="2039"/>
  <unicode hex="00E6"/>
  <outline>
    <contour>
      <point x="1199.49" y="1104"/>
      <point x="1042.4" y="1013.18"/>
      <point x="958.213" y="863.67" type="curve"/>
      <point x="911.29" y="1013.28"/>
      <point x="784.192" y="1104"/>
      <point x="591" y="1104" type="curve" smooth="yes"/>
      <point x="364" y="1104"/>
      <point x="184" y="1026"/>
      <point x="175" y="879" type="curve" smooth="yes"/>
      <point x="171" y="817" type="line"/>
      <point x="309" y="817" type="line"/>
      <point x="313" y="854" type="line" smooth="yes"/>
      <point x="323" y="943"/>
      <point x="412" y="984"/>
      <point x="580" y="984" type="curve" smooth="yes"/>
      <point x="774" y="984"/>
      <point x="855" y="889"/>
      <point x="861.256" y="692" type="curve"/>
      <point x="718" y="692" type="line" smooth="yes"/>
      <point x="260" y="692"/>
      <point x="83" y="588"/>
      <point x="83" y="329" type="curve" smooth="yes"/>
      <point x="83" y="74"/>
      <point x="261" y="-19"/>
      <point x="487" y="-19" type="curve" smooth="yes"/>
      <point x="716.794" y="-19"/>
      <point x="890.667" y="97.7478"/>
      <point x="926.992" y="297.232" type="curve"/>
      <point x="1001.18" y="100.66"/>
      <point x="1173.8" y="-20"/>
      <point x="1446" y="-20" type="curve" smooth="yes"/>
      <point x="1535" y="-20"/>
      <point x="1619" y="-3"/>
      <point x="1698" y="29.9999" type="curve" smooth="yes"/>
      <point x="1777" y="62.9999"/>
      <point x="1849" y="97.9999"/>
      <point x="1915" y="135" type="curve"/>
      <point x="1858" y="243" type="line"/>
      <point x="1811" y="214"/>
      <point x="1749" y="183"/>
      <point x="1672" y="150" type="curve" smooth="yes"/>
      <point x="1595" y="117"/>
      <point x="1519" y="100"/>
      <point x="1444" y="100" type="curve" smooth="yes"/>
      <point x="1194.3" y="100"/>
      <point x="1029.27" y="250.323"/>
      <point x="999.958" y="499" type="curve"/>
      <point x="1946" y="499" type="line"/>
      <point x="1944" y="616" type="line"/>
      <point x="1944" y="903"/>
      <point x="1732" y="1104"/>
      <point x="1431" y="1104" type="curve" smooth="yes"/>
    </contour>
    <contour>
      <point x="861.097" y="257.036"/>
      <point x="721.259" y="108"/>
      <point x="492" y="108" type="curve" smooth="yes"/>
      <point x="409" y="108"/>
      <point x="221" y="126"/>
      <point x="221" y="335" type="curve" smooth="yes"/>
      <point x="221" y="535"/>
      <point x="400" y="566"/>
      <point x="720" y="566" type="curve" smooth="yes"/>
      <point x="861.995" y="566" type="line"/>
    </contour>
    <contour>
      <point x="1649" y="979"/>
      <point x="1807" y="838"/>
      <point x="1805" y="619" type="curve"/>
      <point x="1007.58" y="619" type="line"/>
      <point x="1007.11" y="822.755"/>
      <point x="1173.13" y="979"/>
      <point x="1431" y="979" type="curve" smooth="yes"/>
    </contour>
  </outline>
</glyph>
<glyph name="eth" format="1">
  <advance width="1264"/>
  <unicode hex="00F0"/>
  <outline>
    <contour>
      <point x="535.002" y="1465" type="line"/>
      <point x="708.416" y="1380.08"/>
      <point x="909.33" y="1209.59"/>
      <point x="1011.27" y="933.202" type="curve"/>
      <point x="937" y="1004"/>
      <point x="841" y="1104"/>
      <point x="626.002" y="1104" type="curve" smooth="yes"/>
      <point x="308.002" y="1104"/>
      <point x="58.0018" y="893"/>
      <point x="58.0018" y="541" type="curve" smooth="yes"/>
      <point x="58.0018" y="224"/>
      <point x="274.002" y="-18.9999"/>
      <point x="626.002" y="-18.9999" type="curve" smooth="yes"/>
      <point x="1068" y="-19"/>
      <point x="1196" y="317"/>
      <point x="1194" y="549" type="curve" smooth="yes"/>
      <point x="1186" y="1128"/>
      <point x="876" y="1444"/>
      <point x="594.002" y="1578" type="curve"/>
    </contour>
    <contour>
      <point x="868.003" y="979"/>
      <point x="1056" y="816"/>
      <point x="1056" y="541" type="curve" smooth="yes"/>
      <point x="1056" y="293"/>
      <point x="893.003" y="106"/>
      <point x="626.003" y="106" type="curve" smooth="yes"/>
      <point x="384.003" y="106"/>
      <point x="196.003" y="266"/>
      <point x="196.003" y="541" type="curve" smooth="yes"/>
      <point x="196.003" y="795"/>
      <point x="359.003" y="979"/>
      <point x="626.003" y="979" type="curve" smooth="yes"/>
    </contour>
    <contour>
      <point x="616" y="1306" type="line"/>
      <point x="646" y="1197" type="line"/>
      <point x="1113" y="1353" type="line"/>
      <point x="1083" y="1461" type="line"/>
    </contour>
  </outline>
</glyph>
<glyph name="divide" format="1">
  <advance width="1196"/>
  <unicode hex="00F7"/>
  <outline>
    <contour>
      <point x="195" y="811" type="line"/>
      <point x="195" y="680" type="line"/>
      <point x="1001" y="680" type="line"/>
      <point x="1001" y="811" type="line"/>
    </contour>
    <contour>
      <point x="537" y="490"/>
      <point x="485" y="437"/>
      <point x="485" y="375" type="curve" smooth="yes"/>
      <point x="485" y="314"/>
      <point x="537" y="264"/>
      <point x="598" y="264" type="curve" smooth="yes"/>
      <point x="659" y="264"/>
      <point x="711" y="316"/>
      <point x="711" y="377" type="curve" smooth="yes"/>
      <point x="711" y="438"/>
      <point x="659" y="490"/>
      <point x="598" y="490" type="curve" smooth="yes"/>
    </contour>
    <contour>
      <point x="537" y="1229"/>
      <point x="485" y="1176"/>
      <point x="485" y="1114" type="curve" smooth="yes"/>
      <point x="485" y="1053"/>
      <point x="537" y="1003"/>
      <point x="598" y="1003" type="curve" smooth="yes"/>
      <point x="659" y="1003"/>
      <point x="711" y="1053"/>
      <point x="711" y="1114" type="curve" smooth="yes"/>
      <point x="711" y="1116" type="line" smooth="yes"/>
      <point x="711" y="1177"/>
      <point x="659" y="1229"/>
      <point x="598" y="1229" type="curve" smooth="yes"/>
    </contour>
  </outline>
</glyph>
<glyph name="thorn" format="1">
  <advance width="1319"/>
  <unicode hex="00FE"/>
  <outline>
    <contour>
      <point x="74" y="1495" type="line"/>
      <point x="74" y="1373" type="line"/>
      <point x="204" y="1373" type="line"/>
      <point x="204" y="-477" type="line"/>
      <point x="340" y="-477" type="line"/>
      <point x="340" y="152.09" type="line"/>
      <point x="434.443" y="16.2108"/>
      <point x="560.616" y="-19.9999"/>
      <point x="723" y="-19.9999" type="curve" smooth="yes"/>
      <point x="1058" y="-19.9999"/>
      <point x="1235" y="204"/>
      <point x="1235" y="548" type="curve" smooth="yes"/>
      <point x="1235" y="907"/>
      <point x="1057" y="1104"/>
      <point x="717" y="1104" type="curve" smooth="yes"/>
      <point x="565.295" y="1104"/>
      <point x="412.632" y="1043.65"/>
      <point x="317.14" y="895.76" type="curve"/>
      <point x="332.05" y="976.531"/>
      <point x="340" y="1061.28"/>
      <point x="340" y="1152" type="curve" smooth="yes"/>
      <point x="340" y="1418" type="line" smooth="yes"/>
      <point x="340" y="1479"/>
      <point x="324" y="1495"/>
      <point x="272" y="1495" type="curve" smooth="yes"/>
    </contour>
    <contour>
      <point x="978" y="979"/>
      <point x="1097" y="824"/>
      <point x="1097" y="546" type="curve" smooth="yes"/>
      <point x="1097" y="278"/>
      <point x="968" y="105"/>
      <point x="722" y="105" type="curve" smooth="yes"/>
      <point x="527" y="105"/>
      <point x="340" y="234"/>
      <point x="340" y="437" type="curve" smooth="yes"/>
      <point x="340" y="605" type="line" smooth="yes"/>
      <point x="340" y="822"/>
      <point x="520" y="979"/>
      <point x="716" y="979" type="curve" smooth="yes"/>
    </contour>
  </outline>
</glyph>
<glyph name="Eng" format="1">
  <advance width="1584"/>
  <unicode hex="014A"/>
  <outline>
    <contour>
      <point x="1188" y="-102" type="line" smooth="yes"/>
      <point x="1188" y="-255"/>
      <point x="1132" y="-353"/>
      <point x="993" y="-353" type="curve" smooth="yes"/>
      <point x="937" y="-353"/>
      <point x="883" y="-344"/>
      <point x="829" y="-329" type="curve"/>
      <point x="799" y="-448" type="line"/>
      <point x="863" y="-465"/>
      <point x="927" y="-478"/>
      <point x="1011" y="-478" type="curve" smooth="yes"/>
      <point x="1177" y="-478"/>
      <point x="1324" y="-357"/>
      <point x="1324" y="-137" type="curve" smooth="yes"/>
      <point x="1324" y="54" type="line"/>
      <point x="1188" y="60" type="line"/>
    </contour>
    <component base="N"/>
  </outline>
</glyph>
<glyph name="oe" format="1">
  <advance width="2184"/>
  <unicode hex="0153"/>
  <outline>
    <contour>
      <point x="308" y="1104"/>
      <point x="57.9999" y="893"/>
      <point x="57.9999" y="541" type="curve" smooth="yes"/>
      <point x="57.9999" y="224"/>
      <point x="274" y="-19"/>
      <point x="626" y="-19" type="curve" smooth="yes"/>
      <point x="842.07" y="-19"/>
      <point x="1026.75" y="77.4903"/>
      <point x="1122.94" y="249.453" type="curve"/>
      <point x="1211.95" y="81.2905"/>
      <point x="1386.6" y="-20"/>
      <point x="1636" y="-20" type="curve" smooth="yes"/>
      <point x="1725" y="-20"/>
      <point x="1809" y="-3"/>
      <point x="1888" y="29.9999" type="curve" smooth="yes"/>
      <point x="1967" y="62.9999"/>
      <point x="2039" y="97.9999"/>
      <point x="2105" y="135" type="curve"/>
      <point x="2048" y="243" type="line"/>
      <point x="2001" y="214"/>
      <point x="1939" y="183"/>
      <point x="1862" y="150" type="curve" smooth="yes"/>
      <point x="1785" y="117"/>
      <point x="1709" y="100"/>
      <point x="1634" y="100" type="curve" smooth="yes"/>
      <point x="1385" y="100"/>
      <point x="1228" y="241"/>
      <point x="1192.78" y="499" type="curve"/>
      <point x="2136" y="499" type="line"/>
      <point x="2134" y="616" type="line"/>
      <point x="2134" y="903"/>
      <point x="1922" y="1104"/>
      <point x="1621" y="1104" type="curve" smooth="yes"/>
      <point x="1376.38" y="1104"/>
      <point x="1205.92" y="1002.6"/>
      <point x="1119.75" y="837.714" type="curve"/>
      <point x="1028.27" y="999.198"/>
      <point x="856.221" y="1104"/>
      <point x="626" y="1104" type="curve" smooth="yes"/>
    </contour>
    <contour>
      <point x="859" y="979"/>
      <point x="1042" y="828"/>
      <point x="1055" y="570" type="curve"/>
      <point x="1055" y="382"/>
      <point x="976" y="106"/>
      <point x="626" y="106" type="curve" smooth="yes"/>
      <point x="384" y="106"/>
      <point x="196" y="266"/>
      <point x="196" y="541" type="curve" smooth="yes"/>
      <point x="196" y="795"/>
      <point x="359" y="979"/>
      <point x="626" y="979" type="curve" smooth="yes"/>
    </contour>
    <contour>
      <point x="1839" y="979"/>
      <point x="1997" y="838"/>
      <point x="1995" y="619" type="curve"/>
      <point x="1197.58" y="619" type="line"/>
      <point x="1197.11" y="822.755"/>
      <point x="1363.13" y="979"/>
      <point x="1621" y="979" type="curve" smooth="yes"/>
    </contour>
  </outline>
</glyph>
<glyph name="dotaccent" format="1">
  <advance width="598"/>
  <unicode hex="02D9"/>
  <outline>
    <contour>
      <point x="239" y="1531"/>
      <point x="195" y="1484"/>
      <point x="195" y="1424" type="curve" smooth="yes"/>
      <point x="195" y="1367"/>
      <point x="239" y="1323"/>
      <point x="296" y="1323" type="curve" smooth="yes"/>
      <point x="356" y="1323"/>
      <point x="403" y="1367"/>
      <point x="403" y="1424" type="curve" smooth="yes"/>
      <point x="403" y="1484"/>
      <point x="356" y="1531"/>
      <point x="296" y="1531" type="curve" smooth="yes"/>
    </contour>
    <contour>
      <point x="299" y="1084" type="move" name="_top"/>
    </contour>
  </outline>
</glyph>
<glyph name="quotesinglbase" format="1">
  <advance width="537"/>
  <unicode hex="201A"/>
  <outline>
    <contour>
      <point x="203" y="209"/>
      <point x="148" y="179"/>
      <point x="148" y="98" type="curve" smooth="yes"/>
      <point x="148" y="16"/>
      <point x="192" y="-18"/>
      <point x="192" y="-69" type="curve" smooth="yes"/>
      <point x="192" y="-120"/>
      <point x="156" y="-164"/>
      <point x="96" y="-219" type="curve"/>
      <point x="147" y="-273" type="line"/>
      <point x="207" y="-227"/>
      <point x="250" y="-191"/>
      <point x="301" y="-116" type="curve" smooth="yes"/>
      <point x="354" y="-38"/>
      <point x="370" y="23"/>
      <point x="370" y="76" type="curve" smooth="yes"/>
      <point x="370" y="183"/>
      <point x="304" y="209"/>
      <point x="260" y="209" type="curve" smooth="yes"/>
    </contour>
  </outline>
</glyph>
<glyph name="quotedblleft" format="1">
  <advance width="811"/>
  <unicode hex="201C"/>
  <outline>
    <contour>
      <point x="588" y="1087"/>
      <point x="643" y="1117"/>
      <point x="643" y="1198" type="curve" smooth="yes"/>
      <point x="643" y="1280"/>
      <point x="599" y="1314"/>
      <point x="599" y="1365" type="curve" smooth="yes"/>
      <point x="599" y="1416"/>
      <point x="635" y="1460"/>
      <point x="695" y="1515" type="curve"/>
      <point x="644" y="1569" type="line"/>
      <point x="584" y="1523"/>
      <point x="541" y="1487"/>
      <point x="490" y="1412" type="curve" smooth="yes"/>
      <point x="437" y="1334"/>
      <point x="421" y="1273"/>
      <point x="421" y="1220" type="curve" smooth="yes"/>
      <point x="421" y="1113"/>
      <point x="487" y="1087"/>
      <point x="531" y="1087" type="curve" smooth="yes"/>
    </contour>
    <contour>
      <point x="256" y="1087"/>
      <point x="311" y="1117"/>
      <point x="311" y="1198" type="curve" smooth="yes"/>
      <point x="311" y="1280"/>
      <point x="267" y="1314"/>
      <point x="267" y="1365" type="curve" smooth="yes"/>
      <point x="267" y="1416"/>
      <point x="303" y="1460"/>
      <point x="363" y="1515" type="curve"/>
      <point x="312" y="1569" type="line"/>
      <point x="252" y="1523"/>
      <point x="209" y="1487"/>
      <point x="158" y="1412" type="curve" smooth="yes"/>
      <point x="105" y="1334"/>
      <point x="89" y="1273"/>
      <point x="89" y="1220" type="curve" smooth="yes"/>
      <point x="89" y="1113"/>
      <point x="155" y="1087"/>
      <point x="199" y="1087" type="curve" smooth="yes"/>
    </contour>
  </outline>
</glyph>
